<?xml version="1.0" standalone="no"?><!-- Generator: Gravit.io --><svg xmlns="http://www.w3.org/2000/svg" xmlns:xlink="http://www.w3.org/1999/xlink" style="isolation:isolate" viewBox="39.53632535450363 0 129.81523165553585 161.8" width="129.81523165553585" height="161.8"><path d=" M 146.06243730416247 17.054373737373737 L 63.80211878564395 17.054373737373737 L 51.49932619305136 85.53063973063973 L 155.90445346577863 85.53063973063973 L 146.06243730416247 17.054373737373737 Z " fill="rgb(174,193,207)"/><path d=" M 51.49932619305136 85.53063973063973 L 50.01425279237796 93.79878316498316 L 157.0931659236911 93.79878316498316 L 155.90445346577863 85.53063973063973 L 51.49932619305136 85.53063973063973 Z " fill="rgb(140,161,173)"/><g opacity="0.32"><path d=" M 146.06243730416247 17.054373737373737 L 134.9870366307618 17.054373737373737 L 144.56319959372476 93.79878316498316 L 157.0931659236911 93.79878316498316 L 146.06243730416247 17.054373737373737 Z " fill="rgb(116,136,151)"/></g><path d=" M 103.06340632773151 99.3136026936027 L 102.73000026712543 99.02704781144782 C 101.36042046914565 97.85086531986533 101.20406828059348 95.78723434343435 102.38079555332072 94.41765454545454 L 163.2698945432197 23.540538047138046 C 164.4460770348022 22.170958249158247 166.5097080112332 22.01460606060606 167.87928780921297 23.191333333333336 L 168.21269386981905 23.477888215488218 C 169.58227366779886 24.65407070707071 169.73862585635104 26.717701683501687 168.5618985836238 28.087281481481483 L 107.67279959372476 98.9638531986532 C 106.49661710214227 100.33343299663301 104.4329861257113 100.4897851851852 103.06340632773151 99.3136026936027 Z " fill="rgb(93,116,134)"/><path d=" M 147.32632956005472 38.45828013468014 C 147.32632956005472 34.1935357718942 150.78876095484455 30.73110437710438 155.05350531763048 30.73110437710438 C 159.31824968041641 30.73110437710438 162.78068107520625 34.1935357718942 162.78068107520625 38.45828013468014 C 162.78068107520625 42.72302449746607 159.31824968041641 46.185455892255895 155.05350531763048 46.185455892255895 C 150.78876095484455 46.185455892255895 147.32632956005472 42.72302449746608 147.32632956005472 38.45828013468014 Z " fill="rgb(53,73,94)"/><rect x="95.74263730416249" y="17.054373737373744" width="18.992160269360284" height="76.74440942760947" transform="matrix(1,0,0,1,0,0)" fill="rgb(53,73,94)"/><path d=" M 144.70865615938132 7.636742087542088 C 144.07888915601433 3.253977777777778 140.3237127250379 0 135.89627636140153 0 L 74.31258141190658 0 C 70.00281777554295 0 66.31192551965069 3.0867299663299668 65.54977669810187 7.328940740740741 L 63.80211878564395 17.054373737373737 L 104.93200565433082 17.054373737373737 L 146.0618925230177 17.054373737373737 L 144.70865615938132 7.636742087542088 Z " fill="rgb(65,184,131)"/><g opacity="0.32"><path d=" M 125.30518612571129 3.371105723905724 C 129.73262248934768 3.371105723905724 133.4877989203241 6.625083501683502 134.1175659236911 11.007847811447812 L 134.986491849617 17.05491851851852 L 146.0618925230177 17.05491851851852 L 144.70811137823654 7.636742087542086 C 144.07888915601433 3.253977777777778 140.3237127250379 0 135.89627636140153 0 L 74.31258141190658 0 C 71.51839892032409 0 68.99061440853959 1.3025717171717173 67.3459201324453 3.371105723905724 L 125.30518612571129 3.371105723905724 Z " fill="rgb(60,87,104)"/></g><path d=" M 165.4054366307618 151.6300255892256 L 157.0931659236911 93.79878316498316 L 50.01425279237796 93.79878316498316 L 39.679209694734865 151.32222424242426 C 38.69805885298402 156.78202087542087 42.89450801123318 161.8 48.44201440853958 161.8 L 156.593056832782 161.8 C 162.0136292233544 161.8 166.1763019506271 156.99611986531988 165.4054366307618 151.6300255892256 Z " fill="rgb(65,184,131)"/><g opacity="0.32"><path d=" M 165.4054366307618 151.6300255892256 L 157.0931659236911 93.79878316498316 L 144.7380743411995 93.79878316498316 L 152.1002467317719 145.01856161616163 C 152.70549858362375 149.23026464646466 149.43844605837123 153.00069494949497 145.1831605364857 153.00069494949497 L 39.54900700113217 153.00069494949497 C 39.59640296072813 157.76752996633 43.470341681266845 161.8 48.44201440853958 161.8 L 156.593056832782 161.8 C 162.0136292233544 161.8 166.1763019506271 156.99611986531988 165.4054366307618 151.6300255892256 Z " fill="rgb(60,87,104)"/></g></svg>